<?xml version="1.0" encoding="UTF-8"?>
<svg id="b" data-name="Layer 2" xmlns="http://www.w3.org/2000/svg" width="320.05" height="350.43" viewBox="0 0 320.05 350.43">
  <defs>
    <style>
      .d {
        fill: #fff;
        stroke-width: 0px;
      }
    </style>
  </defs>
  <g id="c" data-name="Layer 1">
    <g>
      <g>
        <path class="d" d="m.7,325.48l10.1-39.64h13.99l10.04,39.64h-8.01l-2.21-8.01h-13.87l-2.09,8.01H.7Zm11.32-14.45h11.43l-4.47-18.69h-2.44l-4.53,18.69Z"/>
        <path class="d" d="m38.95,325.48v-41.04h7.72v41.04h-7.72Z"/>
        <path class="d" d="m66.4,325.48v-39.64h12.89l8.01,26.47,7.84-26.47h13.06v39.64h-8.01v-29.37h-.81l-8.3,28.33h-7.55l-8.3-28.33h-.81v29.37h-8.01Z"/>
        <path class="d" d="m127.29,326.11c-3.29,0-5.93-.54-7.92-1.62-1.99-1.08-3.43-2.76-4.32-5.02-.89-2.26-1.33-5.19-1.33-8.79s.46-6.32,1.39-8.5c.93-2.19,2.4-3.81,4.41-4.88,2.01-1.06,4.6-1.6,7.78-1.6s5.81.53,7.81,1.6,3.46,2.69,4.41,4.88c.95,2.19,1.42,5.02,1.42,8.5s-.45,6.53-1.33,8.79c-.89,2.26-2.33,3.94-4.32,5.02-1.99,1.08-4.65,1.62-7.98,1.62Zm0-6.38c1.62,0,2.84-.3,3.66-.9s1.36-1.57,1.65-2.9.43-3.09.43-5.25-.17-3.82-.52-5.08c-.35-1.26-.93-2.16-1.74-2.7-.81-.54-1.97-.81-3.48-.81s-2.62.27-3.45.81c-.83.54-1.42,1.44-1.77,2.7-.35,1.26-.52,2.95-.52,5.08s.15,3.92.44,5.25.84,2.3,1.65,2.9,2.03.9,3.66.9Z"/>
        <path class="d" d="m155.5,326.11c-2.52,0-4.46-.53-5.83-1.6-1.37-1.06-2.34-2.68-2.9-4.85-.56-2.17-.84-4.89-.84-8.18v-15.15h7.72v14.8c0,2.05.11,3.68.32,4.88.21,1.2.65,2.05,1.31,2.55.66.5,1.61.75,2.84.75s2.32-.15,3.37-.46c1.04-.31,1.88-.62,2.5-.93v-21.59h7.72v29.14h-7.66v-1.8c-1.32.74-2.62,1.33-3.92,1.77-1.3.44-2.83.67-4.61.67Z"/>
        <path class="d" d="m178.08,325.48v-29.14h7.72v1.86c.62-.39,1.37-.76,2.26-1.13.89-.37,1.83-.69,2.82-.96.99-.27,1.94-.41,2.87-.41,2.01,0,3.69.26,5.02.78,1.33.52,2.39,1.36,3.16,2.52s1.33,2.68,1.68,4.56.52,4.15.52,6.82v15.09h-7.78v-14.68c0-2.01-.12-3.63-.35-4.85-.23-1.22-.68-2.1-1.33-2.64-.66-.54-1.62-.81-2.9-.81-.7,0-1.42.07-2.18.2-.75.14-1.47.32-2.15.55-.68.23-1.23.46-1.65.7v21.53h-7.72Z"/>
        <path class="d" d="m220.27,326.17c-2.13,0-3.85-.31-5.17-.93-1.32-.62-2.25-1.69-2.82-3.22-.56-1.53-.84-3.67-.84-6.41v-12.83h-3.42v-6.44h3.42v-7.72h7.72v7.72h7.43v6.44h-7.43v10.8c0,1.51.07,2.69.2,3.54.13.85.43,1.45.9,1.8.46.35,1.18.52,2.15.52.27,0,.68-.02,1.22-.06.54-.04,1.08-.08,1.62-.12.54-.04.99-.08,1.33-.12l.23,6.21c-.58.12-1.29.23-2.12.35-.83.12-1.65.22-2.44.32-.79.1-1.46.14-2,.14Z"/>
        <path class="d" d="m238.5,326.11c-3.02,0-5.29-.76-6.82-2.29-1.53-1.53-2.29-3.84-2.29-6.94,0-2.17.39-3.86,1.16-5.08s1.92-2.11,3.45-2.67c1.53-.56,3.4-.9,5.6-1.02l7.08-.64v-1.74c0-1.39-.35-2.37-1.04-2.93-.7-.56-1.72-.84-3.08-.84-1.08,0-2.33.04-3.74.12-1.41.08-2.81.17-4.18.29-1.37.12-2.56.23-3.57.35l-.23-5.46c1-.23,2.21-.47,3.63-.73,1.41-.25,2.89-.45,4.44-.61,1.55-.15,2.98-.23,4.3-.23,2.48,0,4.55.31,6.21.93,1.66.62,2.92,1.64,3.77,3.05.85,1.41,1.28,3.32,1.28,5.72v13.29c.08.54.37.96.87,1.25.5.29,1.08.49,1.74.61l-.17,5.34c-.62,0-1.23,0-1.83.03-.6.02-1.17.02-1.71,0-.54-.02-1.03-.07-1.45-.15-.89-.12-1.65-.35-2.29-.7s-1.15-.72-1.54-1.1c-.62.27-1.45.58-2.5.93-1.04.35-2.18.64-3.4.87-1.22.23-2.45.35-3.69.35Zm1.86-5.75c.73,0,1.51-.08,2.32-.23.81-.15,1.58-.34,2.29-.55.72-.21,1.29-.42,1.71-.61v-6.67l-5.92.52c-1.28.12-2.2.49-2.76,1.13-.56.64-.84,1.54-.84,2.7s.26,2.07.78,2.73c.52.66,1.32.99,2.41.99Z"/>
        <path class="d" d="m271.06,326.11c-1.39,0-2.67-.17-3.83-.49-1.16-.33-2.18-.85-3.05-1.57-.87-.72-1.61-1.65-2.21-2.82-.6-1.16-1.05-2.58-1.36-4.27-.31-1.68-.46-3.65-.46-5.89,0-3.33.42-6.13,1.25-8.42.83-2.28,2.16-4.01,3.98-5.19,1.82-1.18,4.24-1.77,7.26-1.77.58,0,1.26.03,2.03.09.77.06,1.53.14,2.26.23.73.1,1.33.18,1.8.26v-11.84h7.78v41.04h-7.66l-.06-1.68c-.54.31-1.25.65-2.12,1.02-.87.37-1.79.68-2.76.93-.97.25-1.92.38-2.84.38Zm1.97-6.5c.7,0,1.4-.08,2.12-.23.72-.15,1.39-.34,2.03-.55s1.15-.42,1.54-.61v-15.61c-.35-.08-.81-.15-1.39-.2s-1.18-.12-1.8-.17c-.62-.06-1.18-.09-1.68-.09-1.51,0-2.68.35-3.51,1.04-.83.7-1.42,1.71-1.77,3.05s-.52,2.95-.52,4.85c0,1.66.12,3.05.35,4.15.23,1.1.57,1.97,1.02,2.61.44.64.98,1.09,1.6,1.36.62.27,1.3.41,2.03.41Z"/>
        <path class="d" d="m300.49,326.11c-3.02,0-5.29-.76-6.82-2.29-1.53-1.53-2.29-3.84-2.29-6.94,0-2.17.39-3.86,1.16-5.08s1.92-2.11,3.45-2.67c1.53-.56,3.4-.9,5.6-1.02l7.08-.64v-1.74c0-1.39-.35-2.37-1.04-2.93-.7-.56-1.72-.84-3.08-.84-1.08,0-2.33.04-3.74.12-1.41.08-2.81.17-4.18.29-1.37.12-2.56.23-3.57.35l-.23-5.46c1-.23,2.21-.47,3.63-.73,1.41-.25,2.89-.45,4.44-.61,1.55-.15,2.98-.23,4.3-.23,2.48,0,4.55.31,6.21.93,1.66.62,2.92,1.64,3.77,3.05.85,1.41,1.28,3.32,1.28,5.72v13.29c.08.54.37.96.87,1.25.5.29,1.08.49,1.74.61l-.17,5.34c-.62,0-1.23,0-1.83.03-.6.02-1.17.02-1.71,0-.54-.02-1.03-.07-1.45-.15-.89-.12-1.65-.35-2.29-.7s-1.15-.72-1.54-1.1c-.62.27-1.45.58-2.5.93-1.04.35-2.18.64-3.4.87-1.22.23-2.45.35-3.69.35Zm1.86-5.75c.73,0,1.51-.08,2.32-.23.81-.15,1.58-.34,2.29-.55.72-.21,1.29-.42,1.71-.61v-6.67l-5.92.52c-1.28.12-2.2.49-2.76,1.13-.56.64-.84,1.54-.84,2.7s.26,2.07.78,2.73c.52.66,1.32.99,2.41.99Z"/>
      </g>
      <g>
        <g>
          <path class="d" d="m166.05,34.09c-8.56,0-15.5-6.94-15.5-15.5s6.94-15.5,15.5-15.5c4.57,0,8.68,1.98,11.52,5.13-3.34-4.95-9-8.21-15.42-8.21-10.27,0-18.59,8.32-18.59,18.59,0,9.53,7.18,17.38,16.42,18.46-.44.46-.7,1.08-.7,1.77,0,1.43,1.16,2.59,2.59,2.59s2.59-1.16,2.59-2.59c0-.66-.25-1.26-.65-1.71,5.74-.5,10.73-3.61,13.78-8.14-2.84,3.15-6.95,5.13-11.52,5.13Z"/>
          <g>
            <path class="d" d="m60.48,196.2h.59c-.64,4.16-1.01,8.35-1.09,12.54-.03.96-.04,1.93-.03,2.89-.4-1.11-.79-2.23-1.14-3.36-1.29-3.93-2.32-7.94-3.09-12,1.6-.05,3.19-.07,4.76-.07Z"/>
            <path class="d" d="m183.82,55.31l-21.7,21.7s-14.45,14.23-72.74,66.29c-14.19,12.68-23.12,29.02-27.07,46.36-.61-.01-1.22-.01-1.83-.01-1.94,0-3.88.03-5.81.09-3.84-30.33,5.84-62.55,30.37-84.45,61.77-55.16,77.08-70.24,77.08-70.24,0,0,5.19,5.11,21.7,20.26Z"/>
          </g>
          <g>
            <path class="d" d="m263.86,196.2c1.54,0,3.1.02,4.66.06-.85,4.47-2.01,8.88-3.47,13.18-.24.73-.5,1.46-.76,2.19.01-.64,0-1.27,0-1.91-.05-4.52-.42-9.03-1.11-13.51.23-.01.46-.01.69-.01Z"/>
            <path class="d" d="m269.57,189.74c-1.9-.06-3.8-.09-5.71-.09-.64,0-1.29,0-1.93.01-3.95-17.34-12.88-33.68-27.07-46.36-58.29-52.06-72.74-66.29-72.74-66.29l21.7-21.7c11.86,10.88,29.56,26.93,55.38,49.98,24.53,21.9,34.21,54.12,30.37,84.45Z"/>
          </g>
          <g>
            <path class="d" d="m99.53,200.19c1.29.26,2.57.53,3.82.81-.66,3.51-.96,7.07-.93,10.63-1.35-3.7-2.31-7.54-2.89-11.44Z"/>
            <path class="d" d="m174.8,120.28l-12.68,12.68s-8.44,8.32-42.51,38.74c-7.14,6.38-12,14.34-14.68,22.9-1.97-.43-3.98-.84-6.03-1.23-.56-16.05,5.32-32.39,18.18-43.88,36.09-32.23,45.04-41.04,45.04-41.04,0,0,3.03,2.98,12.68,11.83Z"/>
          </g>
          <g>
            <path class="d" d="m220.9,201.03c1.25-.28,2.52-.55,3.81-.81-.58,3.89-1.55,7.72-2.89,11.41.03-3.55-.27-7.1-.92-10.6Z"/>
            <path class="d" d="m225.34,193.39c-2.04.38-4.05.8-6.02,1.24-2.68-8.57-7.54-16.55-14.69-22.93-34.07-30.42-42.51-38.74-42.51-38.74l12.68-12.68c6.93,6.36,17.27,15.74,32.36,29.21,12.87,11.49,18.75,27.85,18.18,43.9Z"/>
          </g>
        </g>
        <path class="d" d="m275.3,193.29v15.79c-3.89,1.51-8.68,3.28-14.55,5.44-24.87,9.14-62.45,22.96-96.9,43.53l-1.62.96-1.65-.91c-35.22-19.57-73.65-35-99.08-45.21-4.69-1.88-8.82-3.54-12.36-4.99v-14.62c3.76-.23,7.55-.35,11.35-.35,51.67,0,92.89,21.26,101.68,26.15,8.8-4.89,50.02-26.15,101.69-26.15,3.83,0,7.65.12,11.44.36Z"/>
      </g>
    </g>
  </g>
</svg>