<?xml version="1.0" encoding="UTF-8"?>
<svg id="b" data-name="Layer 2" xmlns="http://www.w3.org/2000/svg" width="595.55" height="455.64" viewBox="0 0 595.55 455.64">
  <defs>
    <style>
      .d {
        fill: none;
        stroke: #d9f0ff;
        stroke-width: 3.54px;
      }

      .e {
        opacity: .3;
      }
    </style>
  </defs>
  <g id="c" data-name="Layer 1">
    <g class="e">
      <path class="d" d="m319.39,157.72c-2.44.39-4.9.55-7.39.5-1.66,0-3.29-.11-4.9-.33-4.26-.5-8.36-1.58-12.29-3.24,2.66,6.7,4.65,12.01,5.98,15.94-22.97-1.11-42.16-1.59-57.57-1.45-15.41.14-29.65,1.15-42.71,3.03-2.6,9.63-1.51,17.9,3.28,24.82,4.79,6.92,11.88,12.21,21.29,15.9,9.41,3.68,19.76,5.46,31.04,5.35,10.96-.22,19.7-1.44,26.23-3.65,6.53-2.21,11.4-4.8,14.61-7.76,3.21-2.96,5.35-5.7,6.43-8.22,1.08-2.52,1.62-4.22,1.62-5.1-.06.83-.36,2.55-.91,5.15-.55,2.6-1.56,5.71-3.03,9.34-1.47,3.62-3.54,7.4-6.22,11.33-2.69,3.93-6.18,7.6-10.5,11-4.32,3.4-9.62,6.17-15.9,8.3-6.28,2.13-13.77,3.2-22.45,3.2-9.91,0-18.79-1.76-26.65-5.27-7.86-3.52-14.13-8.22-18.8-14.11-4.68-5.89-7.35-12.44-8.01-19.63-.72-10.79.8-19.82,4.57-27.1,3.76-7.28,8.84-13.06,15.23-17.35,6.39-4.29,13.13-7.37,20.21-9.26-2.6-5.48-3.07-11.01-1.41-16.6,1.88-6.47,4.51-11.32,7.89-14.53,3.38-3.21,7.04-5.24,11-6.1,3.96-.86,7.76-.98,11.41-.37,4.65.83,10.02,3.02,16.1,6.56,6.09,3.54,12.42,7.53,19.01,11.95,6.58,4.43,12.96,8.44,19.13,12.04,6.17,3.6,11.68,5.88,16.52,6.85,4.84.97,8.51-.29,11-3.78-2.44,3.49-5.83,6.27-10.17,8.34-4.35,2.08-8.9,3.5-13.66,4.28Zm-86.74-8.63c7.8-1.94,14.72-2.91,20.75-2.91h25.82c-6.2-3.6-12.48-6.9-18.84-9.92-6.36-3.02-12.2-4.99-17.51-5.94-2.49-.39-4.81.03-6.97,1.25-2.88,1.94-4.5,4.58-4.86,7.93-.36,3.35.18,6.54,1.62,9.59Z"/>
      <path class="d" d="m424.64,202.88l-19.18,12.86,12.87,19.1,19.17-12.87-12.86-19.09Z"/>
      <path class="d" d="m456.43,158.22c0,3.37-.84,7.24-2.53,11.58-1.69,4.34-3.63,8.52-5.81,12.53-2.19,4.02-4.94,8.65-8.26,13.91h-42.09c-1.7-.03-3.33-.26-4.89-.75.11,2.1.08,4.18-.09,6.23-1.1,10.56-5.17,19.61-12.2,27.14-1.99,2.49-6.29,5.15-12.91,7.97-6.61,2.82-16.76,5.13-30.46,6.93-13.7,1.8-32.17,2.36-55.41,1.7,8.08.17,16.52-.83,25.32-2.99,11.12-2.77,21.73-6.89,31.83-12.37,10.1-5.47,18.69-11.45,25.78-17.93,7.08-6.47,11.65-12.5,13.69-18.09-4.04-2.77-7.52-5.7-10.46-8.8-2.93-3.1-5.97-6.89-9.13-11.37l10.3-29.39c.27,2.27,1.37,5.03,3.28,8.26,1.9,3.24,4.28,6.45,7.13,9.63,2.85,3.18,5.88,5.87,9.09,8.05,3.21,2.19,6.23,3.28,9.05,3.28h49.72c-5.14-3.71-12.34-9.43-21.58-17.18l8.38-34.78c.34,3.87,2.25,7.93,5.73,12.16,3.49,4.23,7.36,8.48,11.62,12.74,3.27,3.49,4.9,7.33,4.9,11.54Z"/>
      <path class="d" d="m467.97,31.63c2.49,3.04,5.91,5.24,10.25,6.6,4.34,1.36,8.48,1.67,12.41.96,4.32-.88,8.38-2.35,12.2-4.4l-6.06,16.35c-10.57.5-18.65,1.32-24.24,2.45-5.59,1.13-9.3,2.97-11.12,5.52,0-.61.32-1.67.96-3.2.63-1.52,1.69-3.28,3.15-5.27,1.46-1.99,3.47-4.01,6.02-6.06-1.99-2.49-3.49-4.91-4.48-7.26-1-2.35-1.63-5.16-1.91-8.43-.11-4.98.93-10.14,3.11-15.48,2.19-5.34,4.94-9.17,8.26-11.5,4.15-.5,7.94.26,11.37,2.28,3.43,2.02,6.4,4.61,8.92,7.76,2.52,3.15,4.52,6.17,6.02,9.05-2.66-1.77-6.43-2.81-11.33-3.11-4.9-.3-9.78.3-14.65,1.83-4.87,1.52-8.58,4.14-11.12,7.84.17,1,.91,2.35,2.24,4.07Zm6.39,43.75c2.88,3.43,6.25,6.49,10.13,9.17,3.87,2.69,8.83,5.6,14.86,8.76v24.82c-2.05-.11-3.98-.3-5.81-.58.11,1.88.3,4.32.58,7.3,1.83,17.1,3.03,30.51,3.61,40.22.58,9.71-.58,16.95-3.49,21.71-2.91,4.76-8.67,8.27-17.31,10.54,3.1-1.27,4.83-5.4,5.19-12.37.36-6.97-.01-15.61-1.12-25.9-1.55-13.06-3.93-30.6-7.14-52.63-5.31-6.25-8.5-13.75-9.55-22.5-.61-7.03,1.13-13,5.23-17.93,4.09-4.92,9.66-7.14,16.68-6.64-2.1-.22-4.25-.01-6.43.62-2.19.64-4.03,1.73-5.52,3.28-1.49,1.55-2.24,3.51-2.24,5.89,0,2.21.77,4.29,2.32,6.23Z"/>
      <path class="d" d="m567.75,139.54c2.16,2.27,4.21,4.4,6.14,6.39,6.14,6.42,10.03,13.83,11.66,22.25,1.63,8.41.82,16.74-2.45,24.99-1.88,4.7-4.62,8.77-8.22,12.2-3.6,3.43-7.8,5.87-12.62,7.3-2.16.66-4.37,1-6.64,1-4.21,0-7.84-.83-10.92-2.49-3.07-1.66-5.62-3.82-7.64-6.47-2.02-2.66-3.49-5.56-4.4-8.72-.91-3.15-1.29-6.28-1.12-9.38.39-6.14,2.08-11.66,5.06-16.56,2.99-4.9,6.45-9.17,10.38-12.82l-5.31-4.9c-2.27-1.99-4.29-4.21-6.06-6.64-3.87-5.92-5.63-11.34-5.27-16.27.36-4.92,1.76-9.21,4.19-12.87,2.43-3.65,6.14-7.5,11.12-11.54-3.54,2.6-3.33,6.36.62,11.29,3.96,4.93,10.45,11.95,19.47,21.08.05.06.11.14.17.25,5.2-7.86,8.11-15.88,8.72-24.07.33-4.26-.37-8.3-2.12-12.12-1.74-3.82-5.3-6.56-10.67-8.22-1.61-.44-3.75-.48-6.43-.12-2.68.36-5.38,1.4-8.09,3.11l24.49-27.31c2.77,0,5.08.25,6.93.75,1.85.5,3.08.91,3.69,1.25,2.6,1.22,4.98,3.5,7.14,6.85,2.16,3.35,3.51,7.49,4.07,12.41.5,6.81-.5,13.27-2.99,19.38-2.49,6.12-5.8,11.7-9.92,16.77-4.12,5.06-8.45,9.48-12.99,13.24Zm-21.75,42.67c3.65,4.26,7.62,7.11,11.91,8.55,4.29,1.44,8.4,2.02,12.33,1.74,3.93-.28,8.44-1.22,13.53-2.82l-36.69-32.37c-.39.44-.78.91-1.16,1.41-2.77,4.04-4.1,8.15-3.98,12.33.11,4.18,1.47,7.9,4.07,11.17Z"/>
      <path class="d" d="m70.61,244.93l-19.09,12.78,12.78,19.18,19.18-12.87-12.87-19.09Z"/>
      <path class="d" d="m142.84,264.53c.62,0,1.25.02,1.9.07-.63-.07-1.27-.09-1.9-.07Z"/>
      <path class="d" d="m164.91,400.22v.02h.49c-.17,0-.33-.01-.49-.02Zm26.89,6.66l-19.17,12.86,12.86,19.1,19.18-12.87-12.87-19.09Z"/>
      <path class="d" d="m223.59,362.22c0,3.37-.84,7.24-2.53,11.58-1.69,4.34-3.62,8.52-5.81,12.53-2.19,4.02-4.94,8.65-8.26,13.91h-41.59c-.17,0-.33-.01-.49-.02-1.84-.15-3.46-1.15-4.86-3.01-1.52-2.02-2.82-4.5-3.9-7.43-1.08-2.94-1.98-5.84-2.7-8.72-1.33,3.77-3.13,7.09-5.39,9.96-2.27,2.88-5.08,5.14-8.43,6.77-3.35,1.63-7.32,2.45-11.91,2.45h-12.12c-.55,0-1.08-.03-1.58-.09-.33,2.16-1.1,5.08-2.32,8.76-1.22,3.68-3.1,7.62-5.65,11.83-2.54,4.2-5.99,8.22-10.33,12.04-4.35,3.81-9.81,6.95-16.39,9.42-6.59,2.46-14.56,3.69-23.91,3.69-9.91,0-18.79-1.76-26.65-5.27-7.85-3.52-14.12-8.22-18.8-14.11-4.67-5.89-7.34-12.44-8.01-19.63-.83-12.12,1-22.37,5.48-30.76,4.48-8.38,10.53-15.09,18.14-20.13,7.61-5.03,15.73-8.57,24.36-10.62-1.27-1.66-2.43-3.6-3.49-5.81-1.05-2.22-1.71-4.59-1.99-7.14-.33-7.36,1.18-15.03,4.53-22.99,3.34-7.97,7.45-13.67,12.32-17.1,6.86-.5,12.92.85,18.18,4.06,5.26,3.21,9.67,7.07,13.24,11.58,3.57,4.51,7.18,10.42,10.83,17.73-2.43-1.94-4.95-3.42-7.55-4.45-2.6-1.02-5.96-1.68-10.09-1.99-4.12-.3-9.08.1-14.89,1.21-4.82,1.16-9.05,2.9-12.71,5.23-3.65,2.32-7.52,5.56-11.62,9.71l.42.33c3.71,2.93,8.82,4.77,15.36,5.52,6.52.75,13.22.89,20.08.41,6.86-.46,15.17-1.5,24.91-3.11l-9.22,22.33c-.61.11-2.27.36-4.98.75s-6.18.88-10.42,1.49c-4.23.61-8.95,1.3-14.15,2.08-5.2.77-10.58,1.62-16.14,2.53-5.57.91-11.02,1.84-16.36,2.78-5.34.94-10.26,1.9-14.77,2.86-4.51.97-8.34,1.93-11.5,2.87-2.54,9.63-1.44,17.9,3.32,24.82,4.76,6.91,11.84,12.21,21.25,15.89,9.41,3.68,19.76,5.47,31.05,5.36,12.34-.28,21.91-1.77,28.72-4.49,6.8-2.71,11.63-5.77,14.48-9.17,2.85-3.4,4.55-6.24,5.11-8.51-7.03-.6-12.25-3.03-15.65-7.26-3.4-4.23-5.22-9.2-5.44-14.9-.22-5.7.97-11.04,3.57-16.02-.66,1.27-1.1,2.78-1.33,4.52-.22,1.75,0,3.48.67,5.19.66,1.72,1.96,3.16,3.9,4.32,1.94,1.16,4.79,1.74,8.55,1.74h43.58c-10.85-33.37-17.57-55.72-20.17-67.07-4.87-6.14-7.78-13.31-8.72-21.5-.61-7.03,1.14-13,5.23-17.93,3.63-4.36,8.4-6.6,14.33-6.7-1.35.07-2.71.31-4.08.73-2.18.66-4.02,1.75-5.52,3.28-1.49,1.52-2.24,3.47-2.24,5.85s.78,4.34,2.33,6.22c2.87,3.43,6.25,6.49,10.12,9.18,3.88,2.68,8.83,5.6,14.86,8.75v24.82c-1.05-.05-2.07-.16-3.07-.33,1.33,7.53,2.21,16.17,2.66,25.94.44,9.77-.42,19.02-2.58,27.77,2.05.66,5.56.99,10.54.99h49.15c-5.15-3.71-12.35-9.43-21.59-17.18l8.39-34.78c.33,3.87,2.24,7.93,5.72,12.16,3.49,4.23,7.36,8.48,11.63,12.74,3.26,3.49,4.89,7.33,4.89,11.54Z"/>
      <path class="d" d="m264.6,322.13c-2.05-.11-3.98-.3-5.81-.58.11,1.88.3,4.32.58,7.3,1.83,17.1,3.03,30.51,3.61,40.22.58,9.71-.58,16.95-3.49,21.71-2.9,4.76-8.67,8.27-17.31,10.54,3.1-1.27,4.83-5.4,5.19-12.37.36-6.97-.01-15.61-1.12-25.9-1.55-13.06-3.93-30.6-7.14-52.63-5.31-6.25-8.5-13.75-9.55-22.5-.61-7.03,1.13-13,5.23-17.93,4.09-4.92,9.66-7.14,16.68-6.64-2.1-.22-4.25-.01-6.43.62-2.19.64-4.03,1.73-5.52,3.28-1.49,1.55-2.24,3.51-2.24,5.89,0,2.21.77,4.29,2.32,6.23,2.88,3.43,6.25,6.49,10.13,9.17,3.87,2.69,8.83,5.6,14.86,8.76v24.82Z"/>
      <path class="d" d="m442.24,314.49l-13.78,9.3-6.15-9.3-19.17,12.87,12.87,19.09,13.77-9.22,6.15,9.22,19.17-12.79-12.86-19.17Z"/>
      <path class="d" d="m588.33,357.07c.87,1.1,1.63,2.22,2.29,3.35-.63-1.2-1.4-2.31-2.29-3.35Z"/>
      <path class="d" d="m590.63,360.45c1.03,1.98,1.71,4.17,2.02,6.58.49,3.88-.64,7.17-3.41,9.88-1.93,1.55-4.09,2.3-6.47,2.24-3.16-.22-7.03-1.35-11.62-3.4-4.1-1.83-8.03-3.96-11.79-6.39-6.81-4.32-14.39-9.1-22.74-14.36-10.8-7.09-19.98-11.84-27.56-14.28-3.43-1.16-7.67-1.54-12.7-1.12-5.04.41-9.7,2.48-13.99,6.18-4.29,3.71-7.07,10.02-8.34,18.93-.56,4.37.05,8.6,1.82,12.7h-12.78v.33h-2.41c-2.98,0-5.6-.83-7.84-2.49-2.24-1.66-4.15-3.65-5.73-5.98-1.57-2.32-2.88-4.55-3.9-6.68-1.02-2.13-1.78-3.75-2.28-4.85-.45-.94-.78-1.4-1-1.37-.22.03-.39.43-.5,1.2-.11.78-.26,1.8-.45,3.07-.2,1.28-.53,2.67-1,4.19-.47,1.53-1.13,3.03-1.99,4.53-.86,1.49-1.99,2.88-3.4,4.15-1.42,1.27-3.21,2.29-5.4,3.07-2.19.77-4.83,1.16-7.93,1.16h-63.91l-16.69,26.4,66.41,18.01c-.11,1.49-.68,2.78-1.7,3.86-1.03,1.08-2.9,2.14-5.61,3.2-2.71,1.05-6.61,1.95-11.7,2.69-5.09.75-11.84,1.12-20.25,1.12-2.05,0-4.18-.13-6.4-.41-7.3-.61-14.37-2.84-21.2-6.68-6.84-3.85-12.39-8.87-16.65-15.07-4.26-6.2-6.17-13.17-5.72-20.92.94-8.96,4.09-15.92,9.46-20.87,5.37-4.95,11.83-8.37,19.38-10.25,7.55-1.89,15.09-2.69,22.62-2.41-12.06-2.1-23.7-1.36-34.91,2.24-11.2,3.6-20.48,9.79-27.84,18.59-2.99,3.6-5.41,7.65-7.27,12.16-1.85,4.52-2.78,9.48-2.78,14.9,0,7.42,2.12,14.6,6.35,21.54,4.24,6.95,9.96,12.86,17.19,17.73,7.22,4.87,15.42,7.99,24.61,9.38,13.11,1.6,23.85,1.12,32.2-1.46,8.36-2.57,14.81-6.06,19.34-10.45,4.54-4.41,7.7-8.53,9.47-12.37,1.77-3.85,2.6-6.22,2.49-7.1.11-.66-.02-1.94-.38-3.82-.36-1.88-1.48-4.3-3.36-7.26-1.88-2.96-5.03-6.38-9.46-10.25h23.82c5.92,0,10.59-1.05,13.99-3.16,3.4-2.1,5.91-4.8,7.51-8.09,1.61-3.29,2.59-6.79,2.95-10.5.36-3.71.45-7.22.29-10.54.5,1.71,1.01,3.9,1.54,6.55.52,2.66,1.21,5.46,2.07,8.39s2.03,5.71,3.53,8.34c1.49,2.63,3.44,4.79,5.85,6.48,2.41,1.68,5.44,2.53,9.09,2.53v-.33c9.56.11,21.95.09,37.19-.05,15.49-.13,28.05-.12,37.68.04-1.16-3.37-2.88-7.91-5.14-13.61,9.73,6.37,18.17,10.68,25.31,12.95,3.05,1,6.78,1.4,11.21,1.2,4.43-.19,8.71-1.61,12.87-4.27,4.15-2.66,7.27-7.22,9.38-13.7.66-2.16,1.16-4.56,1.49-7.22.7-5.27-.27-10.2-2.93-14.8Zm-114.53,16.96c-.94-2.55-1.28-5.12-1.03-7.72s1.37-4.81,3.36-6.64c1.88-1.55,4.04-2.3,6.47-2.24,3.1.22,6.97,1.35,11.62,3.4,4.04,1.77,7.97,3.9,11.79,6.39,3.26,2.05,6.86,4.32,10.79,6.81h-43Z"/>
    </g>
  </g>
</svg>