<svg xmlns="http://www.w3.org/2000/svg" version="1.1" xmlns:xlink="http://www.w3.org/1999/xlink" width="512" height="512" x="0" y="0" viewBox="0 0 512 512" style="enable-background:new 0 0 512 512" xml:space="preserve" class=""><g><linearGradient id="a" x1="256" x2="256" y1="512" y2="30" gradientUnits="userSpaceOnUse"><stop stop-opacity="1" stop-color="#ff00c1" offset="0"></stop><stop stop-opacity="1" stop-color="#f59836" offset="0.9243826371942856"></stop></linearGradient><linearGradient id="b" x1="256" x2="256" y1="300" y2="0" gradientUnits="userSpaceOnUse"><stop offset="0" stop-color="#ffedad"></stop><stop offset="1" stop-color="#ffffe5"></stop></linearGradient><path fill="url(#a)" d="M450.409 210H420.33A164.208 164.208 0 0 0 301 66.407V30h123.58c-1.665 4.695-2.58 9.741-2.58 15s.915 10.305 2.58 15h-64.981a195.658 195.658 0 0 1 44.71 38.525c26.849 31.375 42.93 70.49 46.1 111.475zM90 45c0 5.259-.915 10.305-2.58 15h64.982a195.658 195.658 0 0 0-44.71 38.525C80.842 129.9 64.761 169.015 61.591 210H91.67A164.208 164.208 0 0 1 211 66.407V30H87.42A44.785 44.785 0 0 1 90 45zm179.98 86.493 140 360c5.266 13.541-9.87 25.911-22.091 18.054L256 424.762l-131.889 84.786c-12.221 7.857-27.357-4.513-22.091-18.054l140-360c4.959-12.752 23.001-12.752 27.96-.001z" opacity="1" data-original="url(#a)"></path><path fill="url(#b)" d="M481 285v-60c0-8.284-6.716-15-15-15h-60c-8.284 0-15 6.716-15 15v60c0 8.284 6.716 15 15 15h60c8.284 0 15-6.716 15-15zm-360 0v-60c0-8.284-6.716-15-15-15H46c-8.284 0-15 6.716-15 15v60c0 8.284 6.716 15 15 15h60c8.284 0 15-6.716 15-15zM301 75V15c0-8.284-6.716-15-15-15h-60c-8.284 0-15 6.716-15 15v60c0 8.284 6.716 15 15 15h60c8.284 0 15-6.716 15-15zm211-30c0-24.813-20.187-45-45-45s-45 20.187-45 45 20.187 45 45 45 45-20.187 45-45zM90 45C90 20.187 69.813 0 45 0S0 20.187 0 45s20.187 45 45 45 45-20.187 45-45z" opacity="1" data-original="url(#b)" class=""></path></g></svg>