<?xml version="1.0" encoding="UTF-8"?>
<svg id="Layer_2" data-name="Layer 2" xmlns="http://www.w3.org/2000/svg" viewBox="0 0 47.8 30.1">
  <defs>
    <style>
      .cls-1 {
        fill-rule: evenodd;
      }

      .cls-1, .cls-2 {
        fill: #fdd007;
      }

      .cls-1, .cls-2, .cls-3 {
        stroke-width: 0px;
      }

      .cls-3 {
        fill: #fff;
      }
    </style>
  </defs>
  <g id="Layer_1-2" data-name="Layer 1">
    <g>
      <g>
        <path class="cls-3" d="m14.81,18.43c.24,0,.45-.08.65-.21.47-.31.63-.94.39-1.44l-2.25-4.84,1.36-.26c.37-.08.71-.34.84-.68.16-.37.1-.76-.1-1.07l-5.14-7.86c-.26-.39-.73-.6-1.2-.5l-3.56.68c-.39.08-.71.34-.84.68-.16.37-.1.76.1,1.1l3.31,5.01-.58.1c-.42.08-.76.39-.89.79-.13.39-.03.84.26,1.15l6.76,7.04c.29.21.6.31.89.31h0Z"/>
        <polygon class="cls-1" points="9.6 2.7 6.04 3.4 10.32 9.85 8.04 10.27 14.8 17.31 11.92 11.11 14.75 10.58 9.6 2.7"/>
        <path class="cls-2" d="m13.36,1.75c-.1.17-.04.39.13.49.55.31,1.05.71,1.49,1.18.43.46.79.99,1.07,1.58.14.29.26.59.35.88.09.3.16.61.21.91h0c.03.2.21.33.41.3.2-.03.33-.21.3-.41-.05-.35-.13-.69-.23-1.02-.1-.33-.23-.66-.38-.98-.32-.66-.72-1.24-1.2-1.75-.49-.53-1.05-.97-1.66-1.32-.17-.1-.39-.04-.49.13"/>
        <path class="cls-2" d="m13.36,1.75c-.07.11-.06.26.01.37.07.11.21.15.31.22.68.41,1.29.91,1.8,1.52.68.82,1.18,1.82,1.36,2.89l-.11-.16h0s.09.06.09.06l.02.11c.02.13.21.12.23,0,0-.02-.01-.14-.02-.16-.25-1.53-.94-3.01-2.07-4.11-.36-.34-.76-.66-1.2-.89-.16-.06-.35,0-.43.15m0,0c.08-.15.28-.23.44-.16.45.23.86.52,1.26.84,1.06.85,1.9,2.02,2.31,3.33.09.28.15.59.2.88.12.79-1.05.97-1.18.19,0,0,.12.18.11.16l-.1-.06v-.1c-.2-1.5-.91-3-2.09-4-.2-.17-.41-.33-.63-.47-.1-.08-.24-.12-.31-.23-.07-.11-.08-.26,0-.37"/>
        <path class="cls-2" d="m14.56.17c-.1.17-.05.39.12.49.67.41,1.29.92,1.82,1.51.52.58.97,1.23,1.32,1.97.21.43.37.87.5,1.31.13.45.22.91.27,1.37h0c.02.2.2.34.4.32.2-.02.34-.2.32-.39-.06-.5-.15-.99-.29-1.49-.14-.48-.32-.96-.54-1.42-.38-.8-.87-1.51-1.44-2.14-.58-.65-1.26-1.2-1.98-1.64-.17-.1-.39-.05-.49.12"/>
        <path class="cls-2" d="m14.56.17c-.22.39.25.55.5.73.28.19.55.39.81.61,1.64,1.36,2.78,3.35,2.98,5.49,0,0-.21.05-.21.05l.18-.26c.02.15.24.13.23-.02-.26-2.45-1.45-4.85-3.46-6.34-.3-.18-.75-.69-1.05-.26m0,0c.3-.43.76.07,1.06.25,1.03.71,1.92,1.6,2.6,2.65.71,1.09,1.18,2.35,1.33,3.65.07.49-.53.85-.93.56-.22-.14-.27-.41-.28-.64l.21-.05h0s-.18.26-.18.26c-.07-.66-.21-1.3-.41-1.93-.42-1.27-1.14-2.44-2.11-3.36-.25-.23-.51-.45-.78-.64-.25-.18-.72-.36-.5-.74"/>
        <path class="cls-2" d="m6.2,13.03c.1-.17.04-.39-.13-.49-.55-.31-1.05-.71-1.49-1.18-.43-.46-.79-.99-1.07-1.58-.14-.29-.26-.59-.35-.88-.09-.3-.16-.61-.21-.91h0c-.03-.2-.21-.33-.41-.3-.2.03-.33.21-.3.41.05.35.13.69.23,1.02.1.33.23.66.38.98.32.66.72,1.24,1.2,1.75.49.53,1.05.97,1.66,1.32.17.1.39.04.49-.13"/>
        <path class="cls-2" d="m6.2,13.03c.07-.11.06-.26-.01-.37-.07-.11-.21-.15-.31-.22-.68-.41-1.29-.91-1.8-1.52-.68-.82-1.18-1.82-1.36-2.89l.11.16h0s-.09-.06-.09-.06l-.02-.11c-.02-.13-.21-.12-.23,0,0,.02.01.14.02.16.25,1.53.94,3.01,2.07,4.11.36.34.76.66,1.2.89.15.06.35,0,.43-.15m0,0c-.08.15-.28.23-.44.16-.45-.23-.86-.52-1.26-.84-1.06-.85-1.9-2.02-2.31-3.33-.09-.28-.15-.59-.2-.88-.12-.79,1.05-.97,1.18-.19,0,0-.12-.18-.11-.16l.1.06v.1c.2,1.5.91,3,2.09,4,.2.17.41.33.63.47.1.08.24.12.31.23.07.11.08.26,0,.37"/>
        <path class="cls-2" d="m5,14.6c.1-.17.05-.39-.12-.49-.67-.41-1.29-.92-1.82-1.51-.52-.58-.97-1.23-1.32-1.97-.21-.43-.37-.87-.5-1.31-.13-.45-.22-.91-.27-1.37h0c-.02-.2-.2-.34-.4-.32-.2.02-.34.2-.32.39.06.5.15.99.29,1.49.14.48.32.96.54,1.42.38.8.87,1.51,1.44,2.14.58.65,1.26,1.2,1.98,1.64.17.1.39.05.49-.12"/>
        <path class="cls-2" d="m5,14.6c.22-.39-.25-.55-.5-.73-.28-.19-.55-.39-.81-.61-1.64-1.36-2.78-3.35-2.98-5.49,0,0,.21-.05.21-.05l-.18.26c-.02-.15-.24-.13-.23.02.26,2.45,1.45,4.85,3.46,6.34.3.18.75.69,1.05.26m0,0c-.3.43-.76-.07-1.06-.25-1.03-.71-1.92-1.6-2.6-2.65C.62,10.62.15,9.35,0,8.05c-.07-.49.53-.85.93-.56.22.14.27.41.28.64l-.21.05h0s.18-.26.18-.26c.07.66.21,1.3.41,1.93.42,1.27,1.14,2.44,2.11,3.36.25.23.51.45.78.64.25.18.72.36.5.74"/>
      </g>
      <g>
        <path class="cls-3" d="m25.89,5.38c.41.05.81-.32.81-.73s-.21-.83-.67-.9c-.41-.05-.81.3-.81.73,0,.39.23.81.67.9"/>
        <path class="cls-3" d="m27.73,5.38c.41.05.87-.32.87-.73,0-1.1-1.52-1.28-1.52-.18,0,.39.19.81.66.9"/>
        <path class="cls-3" d="m39.41,3.24c-.67.04-.81,1.24.23,1.24,2.55,0,3.54,1.15,3.52,2.16-.04,1.51-6.75,1.42-9.33,1.42-1.33,0-1.54-.74-1.54-1.51.02-.43,0-.9-.05-1.47-.11-.76-1.28-.73-1.24.2.2,3.06-1.05,2.78-4.02,2.78-3.61,0-4.09-.43-4.09-1.91,0-.5-.02-1.28-.57-1.28-.58,0-.67.6-.67,1.28,0,2.55,1.28,3.12,5.33,3.12,2.2,0,3.75.09,4.59-.69.39.44,1.06.73,2.27.73h0s0,0,0,0h0c3.38,0,10.56,0,10.56-2.6,0-1.72-1.45-3.63-4.98-3.45"/>
        <path class="cls-3" d="m40.95,10.49c-.41,0-.69.39-.6.81.09.43.39.64.81.64s.74-.53.67-.94c-.05-.43-.48-.51-.89-.51"/>
        <path class="cls-3" d="m46.28,9.3c.25-.04.66-.11.64-1.01-.04-2.21-.02-3.33-.16-6.54-.04-.81-.39-.9-.71-.81-.44.07-.43.48-.43.99.02,3.54.02,4.11.02,6.54,0,.83.41.87.64.83"/>
        <path class="cls-3" d="m47.46,12.1c-.74,0-.8.07-.87-.05-.55-.96-.34-1.51.64-1.31.46.09.51-.6.23-.64-2.3-.57-2.5,1.06-1.75,2-.35.05-.42.05-.64.07-.39.04-.43.96.28.96.34,0,1.49-.02,1.98-.05.69-.02.5-.97.12-.97"/>
      </g>
      <g>
        <path class="cls-2" d="m24.02,25.06c1.78,0,3.73-.64,3.73-2.16,0-1.04-.81-1.47-1.72-1.47-1.14,0-2.01,1.27-2.01,3.63"/>
        <path class="cls-3" d="m8.24,22.34c0,1.41.33,2.91-1.66,2.91-1.45,0-1.66-.79-1.68-1.62,0-.31.04-4.13.04-5.08s-.35-1.1-.85-1.04c-.27.04-.48.42-.52,1.18-.04.68-.06,4.84-.04,5.27.02,1.39.44,2.64,3.05,2.64h0c3.42,0,3.09-2.14,3.01-4.32-.04-.83-1.35-.7-1.35.06"/>
        <path class="cls-3" d="m6.43,27.97c-.44,0-.75.42-.66.89.1.46.42.69.89.69s.81-.58.73-1.02c-.06-.46-.52-.56-.97-.56"/>
        <path class="cls-3" d="m43.92,17.57c-.39.02-.6.25-.6.62l.02,4.96c0,1.27-.21,2.1-1.68,2.1-.02,0-.04,0-.06,0h0c-2.66,0-3.34-.45-3.51-.9-.02-.27-.1-.56-.21-.89-.21-.58-.56-1.31-.87-1.91-.64-1.24-.39-1.49,1.27-2.08.98-.33,1.91-.52,3.01-.98.64-.29.31-.89.02-1.12-.41-.37-2.76.42-4.44,1.12-1.78.71-1.95,1.66-1.18,3.47.29.64.37.69.73,1.6.71,1.74-.46,1.68-1.7,1.68,0,0-.01,0-.02,0h0s-.46,0-.46,0h-4.55c-.24,0-.82,0-1.48-.05-.09,0-.18-.02-.27-.02.1-.11.19-.22.28-.33,1.58-2.05.75-4.69-2.07-4.69s-3.42,2.36-3.42,5.1h-7.76c-1.02,0-1.43-.39-1.58-.91-.06-.64-.15-1.31-.29-2.03-.15-.83-1.31-.7-1.2.31.33,2.9.25,5.35-.98,5.67-.62.15-.42,1.39.52,1.2,1.22-.25,1.83-1.37,1.97-3.11.41.13.91.21,1.56.21h6.83s.01,0,.02,0h.91c.12,2.51,1.45,3.49,3.11,3.49,1.49,0,3.51-.87,2.51-3.57.7.1,1.08.08,1.35.08h5.01s.01,0,.02,0h.54c.87,0,1.78-.17,2.32-.71.71.44,1.93.71,4.01.71h0s.04,0,.06,0c2.82,0,3.03-1.47,3.05-2.99.04-2.2-.04-4.25-.04-5.33,0-.58-.44-.73-.75-.71m-18.08,11.31c-1.37,0-1.76-.95-1.78-2.47.66-.08,1.25-.21,1.78-.37,2.03.23,1.93,2.84,0,2.84m-1.81-3.82c0-2.35.87-3.63,2.01-3.63.91,0,1.72.42,1.72,1.47,0,1.52-1.95,2.16-3.73,2.16"/>
        <path class="cls-3" d="m47.32,18.38c-.04-.89-.42-.98-.77-.89-.48.08-.46.52-.46,1.08.02,3.86.02,4.48.02,7.12,0,.91.44.95.69.91.27-.04.71-.12.7-1.1-.04-2.41-.02-3.63-.17-7.12"/>
        <path class="cls-2" d="m21.55,15.74c-.16-.3-.04-.67.26-.84.3-.16.67-.04.84.26l.96,1.85c.16.3.04.67-.26.84-.31.16-.68.04-.84-.26l-.96-1.85Z"/>
        <path class="cls-2" d="m27.14,17.52c-.32-.1-.51-.45-.4-.78l.63-1.99c.1-.33.45-.51.78-.41.33.1.51.45.4.78l-.63,1.99c-.1.32-.45.51-.78.4"/>
        <path class="cls-2" d="m30.06,19.97c-.16-.31-.04-.68.26-.84l1.85-.96c.3-.16.67-.04.84.26.16.3.04.68-.26.84l-1.85.96c-.3.16-.68.04-.84-.26"/>
      </g>
    </g>
  </g>
</svg>