<svg xmlns="http://www.w3.org/2000/svg" version="1.1" xmlns:xlink="http://www.w3.org/1999/xlink" width="512" height="512" x="0" y="0" viewBox="0 0 64 64" style="enable-background:new 0 0 512 512" xml:space="preserve" class=""><g><path fill="#ffffff" d="M13 24c-.55 0-1-.45-1-1 0-6.49 3.65-12.13 9-15H10c-.55 0-1-.45-1-1s.45-1 1-1h19c.55 0 1 .45 1 1s-.45 1-1 1c-8.27 0-15 6.73-15 15 0 .55-.45 1-1 1zM51 24c-.55 0-1-.45-1-1 0-8.27-6.73-15-15-15-.55 0-1-.45-1-1s.45-1 1-1h19c.55 0 1 .45 1 1s-.45 1-1 1H43c5.35 2.87 9 8.51 9 15 0 .55-.45 1-1 1z" opacity="1" data-original="#d3dce5"></path><rect width="24" height="6" x="20" y="54" fill="#e4e4e4" rx="1" opacity="1" data-original="#536882" class=""></rect><g fill="#6581c6"><rect width="6" height="6" x="29" y="4" rx="1" fill="#e8e8e8" opacity="1" data-original="#6581c6" class=""></rect><rect width="6" height="6" x="10" y="23" rx="1" fill="#e8e8e8" opacity="1" data-original="#6581c6" class=""></rect><circle cx="7" cy="7" r="3" fill="#e8e8e8" opacity="1" data-original="#6581c6" class=""></circle><rect width="6" height="6" x="48" y="23" rx="1" transform="rotate(180 51 26)" fill="#e8e8e8" opacity="1" data-original="#6581c6" class=""></rect><circle cx="57" cy="7" r="3" fill="#e8e8e8" opacity="1" data-original="#6581c6" class=""></circle></g><path fill="#ffffff" d="m47.05 39.36-5.82 13.97c-.14.4-.52.67-.94.67H23.71c-.42 0-.8-.27-.94-.67l-5.82-13.97a.967.967 0 0 1 .02-.71l10.77-23.04c.16-.37.52-.61.92-.61h6.68c.4 0 .76.24.92.61l10.77 23.04c.1.22.1.48.02.71z" opacity="1" data-original="#edae65" class=""></path><path fill="#efefef" d="M33 15v20c0 .55-.45 1-1 1s-1-.45-1-1V15z" opacity="1" data-original="#d88852" class=""></path><circle cx="32" cy="38" r="3" fill="#efefef" opacity="1" data-original="#d88852" class=""></circle></g></svg>