<svg xmlns="http://www.w3.org/2000/svg" version="1.1" xmlns:xlink="http://www.w3.org/1999/xlink" width="512" height="512" x="0" y="0" viewBox="0 0 64 64" style="enable-background:new 0 0 512 512" xml:space="preserve"><g><linearGradient id="a" x1="4" x2="59.935" y1="31.964" y2="31.964" gradientUnits="userSpaceOnUse"><stop stop-opacity="1" stop-color="#ff00c1" offset="0"></stop><stop stop-opacity="1" stop-color="#f59836" offset="1"></stop></linearGradient><path fill="url(#a)" d="M49.61 34.68a16.092 16.092 0 0 0 .19-2.24 17.87 17.87 0 0 0-20.48-18.05A15.772 15.772 0 0 1 44.19 4c17.69.295 21.826 24.46 5.42 30.68zM32 16.19a15.781 15.781 0 0 0-14.84 10.38c10.673-1.804 20.934 7.227 20.46 18.05a16.337 16.337 0 0 1-.19 2.23C53.87 40.612 49.637 16.469 32 16.19zM20.75 28.4A15.864 15.864 0 0 0 4 44.19c.33 17.75 24.445 21.77 30.68 5.41 3.709-9.63-3.595-20.791-13.93-21.2z" opacity="1" data-original="url(#a)"></path></g></svg>